<mxfile host="app.diagrams.net" modified="2022-09-24T18:13:10.961Z" agent="5.0 (X11; Linux x86_64) AppleWebKit/537.36 (KHTML, like Gecko) Chrome/102.0.0.0 Safari/537.36" etag="RXGL5k1OCIRxFP2uoRTt" version="20.3.3" type="github">
  <diagram id="C5RBs43oDa-KdzZeNtuy" name="Page-1">
    <mxGraphModel dx="2415" dy="1942" grid="1" gridSize="10" guides="1" tooltips="1" connect="1" arrows="1" fold="1" page="1" pageScale="1" pageWidth="827" pageHeight="1169" math="0" shadow="0">
      <root>
        <mxCell id="WIyWlLk6GJQsqaUBKTNV-0" />
        <mxCell id="WIyWlLk6GJQsqaUBKTNV-1" parent="WIyWlLk6GJQsqaUBKTNV-0" />
        <mxCell id="2e2_yc0BawEwEj8Xe1i9-0" value="IntelligenceCenter" style="swimlane;fontStyle=1;childLayout=stackLayout;horizontal=1;startSize=26;horizontalStack=0;resizeParent=1;resizeParentMax=0;resizeLast=0;collapsible=1;marginBottom=0;" vertex="1" parent="WIyWlLk6GJQsqaUBKTNV-1">
          <mxGeometry x="-330" y="-80" width="290" height="268" as="geometry" />
        </mxCell>
        <mxCell id="2e2_yc0BawEwEj8Xe1i9-1" value="- agents: List&lt;SecretAgent&gt;" style="text;strokeColor=none;fillColor=none;align=left;verticalAlign=top;spacingLeft=4;spacingRight=4;overflow=hidden;rotatable=0;points=[[0,0.5],[1,0.5]];portConstraint=eastwest;" vertex="1" parent="2e2_yc0BawEwEj8Xe1i9-0">
          <mxGeometry y="26" width="290" height="26" as="geometry" />
        </mxCell>
        <mxCell id="2e2_yc0BawEwEj8Xe1i9-2" value="- missions: List&lt;Mission&gt;" style="text;strokeColor=none;fillColor=none;align=left;verticalAlign=top;spacingLeft=4;spacingRight=4;overflow=hidden;rotatable=0;points=[[0,0.5],[1,0.5]];portConstraint=eastwest;" vertex="1" parent="2e2_yc0BawEwEj8Xe1i9-0">
          <mxGeometry y="52" width="290" height="26" as="geometry" />
        </mxCell>
        <mxCell id="2e2_yc0BawEwEj8Xe1i9-3" value="" style="line;strokeWidth=1;fillColor=none;align=left;verticalAlign=middle;spacingTop=-1;spacingLeft=3;spacingRight=3;rotatable=0;labelPosition=right;points=[];portConstraint=eastwest;" vertex="1" parent="2e2_yc0BawEwEj8Xe1i9-0">
          <mxGeometry y="78" width="290" height="8" as="geometry" />
        </mxCell>
        <mxCell id="2e2_yc0BawEwEj8Xe1i9-4" value="+ transferInformers(fallenAgent, newAgent): void " style="text;strokeColor=none;fillColor=none;align=left;verticalAlign=top;spacingLeft=4;spacingRight=4;overflow=hidden;rotatable=0;points=[[0,0.5],[1,0.5]];portConstraint=eastwest;" vertex="1" parent="2e2_yc0BawEwEj8Xe1i9-0">
          <mxGeometry y="86" width="290" height="26" as="geometry" />
        </mxCell>
        <mxCell id="2e2_yc0BawEwEj8Xe1i9-5" value="+ launchMission(Officer):" style="text;strokeColor=none;fillColor=none;align=left;verticalAlign=top;spacingLeft=4;spacingRight=4;overflow=hidden;rotatable=0;points=[[0,0.5],[1,0.5]];portConstraint=eastwest;" vertex="1" parent="2e2_yc0BawEwEj8Xe1i9-0">
          <mxGeometry y="112" width="290" height="26" as="geometry" />
        </mxCell>
        <mxCell id="2e2_yc0BawEwEj8Xe1i9-6" value="+ retireAgent(agent): void" style="text;strokeColor=none;fillColor=none;align=left;verticalAlign=top;spacingLeft=4;spacingRight=4;overflow=hidden;rotatable=0;points=[[0,0.5],[1,0.5]];portConstraint=eastwest;" vertex="1" parent="2e2_yc0BawEwEj8Xe1i9-0">
          <mxGeometry y="138" width="290" height="26" as="geometry" />
        </mxCell>
        <mxCell id="2e2_yc0BawEwEj8Xe1i9-7" value="+ closeMission(mission): void" style="text;strokeColor=none;fillColor=none;align=left;verticalAlign=top;spacingLeft=4;spacingRight=4;overflow=hidden;rotatable=0;points=[[0,0.5],[1,0.5]];portConstraint=eastwest;" vertex="1" parent="2e2_yc0BawEwEj8Xe1i9-0">
          <mxGeometry y="164" width="290" height="26" as="geometry" />
        </mxCell>
        <mxCell id="2e2_yc0BawEwEj8Xe1i9-8" value="+ reportMissionStatus(mission): String" style="text;strokeColor=none;fillColor=none;align=left;verticalAlign=top;spacingLeft=4;spacingRight=4;overflow=hidden;rotatable=0;points=[[0,0.5],[1,0.5]];portConstraint=eastwest;" vertex="1" parent="2e2_yc0BawEwEj8Xe1i9-0">
          <mxGeometry y="190" width="290" height="26" as="geometry" />
        </mxCell>
        <mxCell id="2e2_yc0BawEwEj8Xe1i9-9" value="+ reportAgentForRetirement(): Agent" style="text;strokeColor=none;fillColor=none;align=left;verticalAlign=top;spacingLeft=4;spacingRight=4;overflow=hidden;rotatable=0;points=[[0,0.5],[1,0.5]];portConstraint=eastwest;" vertex="1" parent="2e2_yc0BawEwEj8Xe1i9-0">
          <mxGeometry y="216" width="290" height="26" as="geometry" />
        </mxCell>
        <mxCell id="2e2_yc0BawEwEj8Xe1i9-10" value="+ mostCompletedMissions(): Officer" style="text;strokeColor=none;fillColor=none;align=left;verticalAlign=top;spacingLeft=4;spacingRight=4;overflow=hidden;rotatable=0;points=[[0,0.5],[1,0.5]];portConstraint=eastwest;" vertex="1" parent="2e2_yc0BawEwEj8Xe1i9-0">
          <mxGeometry y="242" width="290" height="26" as="geometry" />
        </mxCell>
        <mxCell id="2e2_yc0BawEwEj8Xe1i9-11" value="Mission" style="swimlane;fontStyle=1;childLayout=stackLayout;horizontal=1;startSize=26;horizontalStack=0;resizeParent=1;resizeParentMax=0;resizeLast=0;collapsible=1;marginBottom=0;" vertex="1" parent="WIyWlLk6GJQsqaUBKTNV-1">
          <mxGeometry x="150" y="15" width="160" height="78" as="geometry" />
        </mxCell>
        <mxCell id="2e2_yc0BawEwEj8Xe1i9-12" value="- codeName: String" style="text;strokeColor=none;fillColor=none;align=left;verticalAlign=top;spacingLeft=4;spacingRight=4;overflow=hidden;rotatable=0;points=[[0,0.5],[1,0.5]];portConstraint=eastwest;" vertex="1" parent="2e2_yc0BawEwEj8Xe1i9-11">
          <mxGeometry y="26" width="160" height="26" as="geometry" />
        </mxCell>
        <mxCell id="2e2_yc0BawEwEj8Xe1i9-13" value="- deadline: LocalTime" style="text;strokeColor=none;fillColor=none;align=left;verticalAlign=top;spacingLeft=4;spacingRight=4;overflow=hidden;rotatable=0;points=[[0,0.5],[1,0.5]];portConstraint=eastwest;" vertex="1" parent="2e2_yc0BawEwEj8Xe1i9-11">
          <mxGeometry y="52" width="160" height="26" as="geometry" />
        </mxCell>
        <mxCell id="2e2_yc0BawEwEj8Xe1i9-46" style="edgeStyle=orthogonalEdgeStyle;rounded=0;orthogonalLoop=1;jettySize=auto;html=1;strokeWidth=1;endArrow=none;endFill=0;endSize=11;" edge="1" parent="WIyWlLk6GJQsqaUBKTNV-1" source="2e2_yc0BawEwEj8Xe1i9-14" target="2e2_yc0BawEwEj8Xe1i9-11">
          <mxGeometry relative="1" as="geometry" />
        </mxCell>
        <mxCell id="2e2_yc0BawEwEj8Xe1i9-14" value="MissionStatus" style="swimlane;fontStyle=1;childLayout=stackLayout;horizontal=1;startSize=26;horizontalStack=0;resizeParent=1;resizeParentMax=0;resizeLast=0;collapsible=1;marginBottom=0;" vertex="1" parent="WIyWlLk6GJQsqaUBKTNV-1">
          <mxGeometry x="150" y="150" width="160" height="104" as="geometry" />
        </mxCell>
        <mxCell id="2e2_yc0BawEwEj8Xe1i9-15" value="INPROGRESS" style="text;strokeColor=none;fillColor=none;align=left;verticalAlign=top;spacingLeft=4;spacingRight=4;overflow=hidden;rotatable=0;points=[[0,0.5],[1,0.5]];portConstraint=eastwest;" vertex="1" parent="2e2_yc0BawEwEj8Xe1i9-14">
          <mxGeometry y="26" width="160" height="26" as="geometry" />
        </mxCell>
        <mxCell id="2e2_yc0BawEwEj8Xe1i9-16" value="COMPLETED" style="text;strokeColor=none;fillColor=none;align=left;verticalAlign=top;spacingLeft=4;spacingRight=4;overflow=hidden;rotatable=0;points=[[0,0.5],[1,0.5]];portConstraint=eastwest;" vertex="1" parent="2e2_yc0BawEwEj8Xe1i9-14">
          <mxGeometry y="52" width="160" height="26" as="geometry" />
        </mxCell>
        <mxCell id="2e2_yc0BawEwEj8Xe1i9-17" value="FAILED" style="text;strokeColor=none;fillColor=none;align=left;verticalAlign=top;spacingLeft=4;spacingRight=4;overflow=hidden;rotatable=0;points=[[0,0.5],[1,0.5]];portConstraint=eastwest;" vertex="1" parent="2e2_yc0BawEwEj8Xe1i9-14">
          <mxGeometry y="78" width="160" height="26" as="geometry" />
        </mxCell>
        <mxCell id="2e2_yc0BawEwEj8Xe1i9-18" value="SecretAgent" style="swimlane;fontStyle=1;childLayout=stackLayout;horizontal=1;startSize=26;horizontalStack=0;resizeParent=1;resizeParentMax=0;resizeLast=0;collapsible=1;marginBottom=0;" vertex="1" parent="WIyWlLk6GJQsqaUBKTNV-1">
          <mxGeometry x="-270" y="254" width="160" height="130" as="geometry" />
        </mxCell>
        <mxCell id="2e2_yc0BawEwEj8Xe1i9-19" value="- final id: int" style="text;strokeColor=none;fillColor=none;align=left;verticalAlign=top;spacingLeft=4;spacingRight=4;overflow=hidden;rotatable=0;points=[[0,0.5],[1,0.5]];portConstraint=eastwest;" vertex="1" parent="2e2_yc0BawEwEj8Xe1i9-18">
          <mxGeometry y="26" width="160" height="26" as="geometry" />
        </mxCell>
        <mxCell id="2e2_yc0BawEwEj8Xe1i9-20" value="- name: String" style="text;strokeColor=none;fillColor=none;align=left;verticalAlign=top;spacingLeft=4;spacingRight=4;overflow=hidden;rotatable=0;points=[[0,0.5],[1,0.5]];portConstraint=eastwest;" vertex="1" parent="2e2_yc0BawEwEj8Xe1i9-18">
          <mxGeometry y="52" width="160" height="26" as="geometry" />
        </mxCell>
        <mxCell id="2e2_yc0BawEwEj8Xe1i9-21" value="- alias: String" style="text;strokeColor=none;fillColor=none;align=left;verticalAlign=top;spacingLeft=4;spacingRight=4;overflow=hidden;rotatable=0;points=[[0,0.5],[1,0.5]];portConstraint=eastwest;" vertex="1" parent="2e2_yc0BawEwEj8Xe1i9-18">
          <mxGeometry y="78" width="160" height="26" as="geometry" />
        </mxCell>
        <mxCell id="2e2_yc0BawEwEj8Xe1i9-22" value="- active: boolean" style="text;strokeColor=none;fillColor=none;align=left;verticalAlign=top;spacingLeft=4;spacingRight=4;overflow=hidden;rotatable=0;points=[[0,0.5],[1,0.5]];portConstraint=eastwest;" vertex="1" parent="2e2_yc0BawEwEj8Xe1i9-18">
          <mxGeometry y="104" width="160" height="26" as="geometry" />
        </mxCell>
        <mxCell id="2e2_yc0BawEwEj8Xe1i9-43" style="edgeStyle=orthogonalEdgeStyle;rounded=0;orthogonalLoop=1;jettySize=auto;html=1;strokeWidth=1;endSize=11;endArrow=block;endFill=0;" edge="1" parent="WIyWlLk6GJQsqaUBKTNV-1" source="2e2_yc0BawEwEj8Xe1i9-23" target="2e2_yc0BawEwEj8Xe1i9-18">
          <mxGeometry relative="1" as="geometry">
            <Array as="points">
              <mxPoint x="-430" y="434" />
              <mxPoint x="-190" y="434" />
            </Array>
          </mxGeometry>
        </mxCell>
        <mxCell id="2e2_yc0BawEwEj8Xe1i9-23" value="Officer" style="swimlane;fontStyle=1;childLayout=stackLayout;horizontal=1;startSize=26;horizontalStack=0;resizeParent=1;resizeParentMax=0;resizeLast=0;collapsible=1;marginBottom=0;" vertex="1" parent="WIyWlLk6GJQsqaUBKTNV-1">
          <mxGeometry x="-510" y="464" width="190" height="104" as="geometry" />
        </mxCell>
        <mxCell id="2e2_yc0BawEwEj8Xe1i9-24" value="- missions: List&lt;Mission&gt;" style="text;strokeColor=none;fillColor=none;align=left;verticalAlign=top;spacingLeft=4;spacingRight=4;overflow=hidden;rotatable=0;points=[[0,0.5],[1,0.5]];portConstraint=eastwest;" vertex="1" parent="2e2_yc0BawEwEj8Xe1i9-23">
          <mxGeometry y="26" width="190" height="26" as="geometry" />
        </mxCell>
        <mxCell id="2e2_yc0BawEwEj8Xe1i9-51" value="- reports: List&lt;String&gt;" style="text;strokeColor=none;fillColor=none;align=left;verticalAlign=top;spacingLeft=4;spacingRight=4;overflow=hidden;rotatable=0;points=[[0,0.5],[1,0.5]];portConstraint=eastwest;" vertex="1" parent="2e2_yc0BawEwEj8Xe1i9-23">
          <mxGeometry y="52" width="190" height="26" as="geometry" />
        </mxCell>
        <mxCell id="2e2_yc0BawEwEj8Xe1i9-50" value="- agents: List&lt;SecretAgents&gt;" style="text;strokeColor=none;fillColor=none;align=left;verticalAlign=top;spacingLeft=4;spacingRight=4;overflow=hidden;rotatable=0;points=[[0,0.5],[1,0.5]];portConstraint=eastwest;" vertex="1" parent="2e2_yc0BawEwEj8Xe1i9-23">
          <mxGeometry y="78" width="190" height="26" as="geometry" />
        </mxCell>
        <mxCell id="2e2_yc0BawEwEj8Xe1i9-44" style="edgeStyle=orthogonalEdgeStyle;rounded=0;orthogonalLoop=1;jettySize=auto;html=1;strokeWidth=1;endArrow=block;endFill=0;endSize=11;" edge="1" parent="WIyWlLk6GJQsqaUBKTNV-1" source="2e2_yc0BawEwEj8Xe1i9-25" target="2e2_yc0BawEwEj8Xe1i9-18">
          <mxGeometry relative="1" as="geometry" />
        </mxCell>
        <mxCell id="2e2_yc0BawEwEj8Xe1i9-25" value="Agent" style="swimlane;fontStyle=1;childLayout=stackLayout;horizontal=1;startSize=26;horizontalStack=0;resizeParent=1;resizeParentMax=0;resizeLast=0;collapsible=1;marginBottom=0;" vertex="1" parent="WIyWlLk6GJQsqaUBKTNV-1">
          <mxGeometry x="-280" y="464" width="180" height="86" as="geometry" />
        </mxCell>
        <mxCell id="2e2_yc0BawEwEj8Xe1i9-26" value="- killCount: int" style="text;strokeColor=none;fillColor=none;align=left;verticalAlign=top;spacingLeft=4;spacingRight=4;overflow=hidden;rotatable=0;points=[[0,0.5],[1,0.5]];portConstraint=eastwest;" vertex="1" parent="2e2_yc0BawEwEj8Xe1i9-25">
          <mxGeometry y="26" width="180" height="26" as="geometry" />
        </mxCell>
        <mxCell id="2e2_yc0BawEwEj8Xe1i9-27" value="" style="line;strokeWidth=1;fillColor=none;align=left;verticalAlign=middle;spacingTop=-1;spacingLeft=3;spacingRight=3;rotatable=0;labelPosition=right;points=[];portConstraint=eastwest;" vertex="1" parent="2e2_yc0BawEwEj8Xe1i9-25">
          <mxGeometry y="52" width="180" height="8" as="geometry" />
        </mxCell>
        <mxCell id="2e2_yc0BawEwEj8Xe1i9-28" value="+ liquidateAgent(Agent): void" style="text;strokeColor=none;fillColor=none;align=left;verticalAlign=top;spacingLeft=4;spacingRight=4;overflow=hidden;rotatable=0;points=[[0,0.5],[1,0.5]];portConstraint=eastwest;" vertex="1" parent="2e2_yc0BawEwEj8Xe1i9-25">
          <mxGeometry y="60" width="180" height="26" as="geometry" />
        </mxCell>
        <mxCell id="2e2_yc0BawEwEj8Xe1i9-45" style="edgeStyle=orthogonalEdgeStyle;rounded=0;orthogonalLoop=1;jettySize=auto;html=1;strokeWidth=1;endArrow=block;endFill=0;endSize=11;" edge="1" parent="WIyWlLk6GJQsqaUBKTNV-1" source="2e2_yc0BawEwEj8Xe1i9-29" target="2e2_yc0BawEwEj8Xe1i9-18">
          <mxGeometry relative="1" as="geometry">
            <Array as="points">
              <mxPoint x="60" y="434" />
              <mxPoint x="-190" y="434" />
            </Array>
          </mxGeometry>
        </mxCell>
        <mxCell id="2e2_yc0BawEwEj8Xe1i9-29" value="Informer" style="swimlane;fontStyle=1;childLayout=stackLayout;horizontal=1;startSize=26;horizontalStack=0;resizeParent=1;resizeParentMax=0;resizeLast=0;collapsible=1;marginBottom=0;" vertex="1" parent="WIyWlLk6GJQsqaUBKTNV-1">
          <mxGeometry x="-20" y="464" width="160" height="30" as="geometry" />
        </mxCell>
        <mxCell id="2e2_yc0BawEwEj8Xe1i9-41" style="edgeStyle=orthogonalEdgeStyle;rounded=0;orthogonalLoop=1;jettySize=auto;html=1;dashed=1;strokeWidth=1;endSize=11;" edge="1" parent="WIyWlLk6GJQsqaUBKTNV-1" source="2e2_yc0BawEwEj8Xe1i9-30" target="2e2_yc0BawEwEj8Xe1i9-25">
          <mxGeometry relative="1" as="geometry" />
        </mxCell>
        <mxCell id="2e2_yc0BawEwEj8Xe1i9-42" style="edgeStyle=orthogonalEdgeStyle;rounded=0;orthogonalLoop=1;jettySize=auto;html=1;dashed=1;strokeWidth=1;endSize=11;" edge="1" parent="WIyWlLk6GJQsqaUBKTNV-1" source="2e2_yc0BawEwEj8Xe1i9-30" target="2e2_yc0BawEwEj8Xe1i9-29">
          <mxGeometry relative="1" as="geometry" />
        </mxCell>
        <mxCell id="2e2_yc0BawEwEj8Xe1i9-30" value="&lt;&lt; InfoAgent &gt;&gt;" style="swimlane;fontStyle=1;childLayout=stackLayout;horizontal=1;startSize=26;horizontalStack=0;resizeParent=1;resizeParentMax=0;resizeLast=0;collapsible=1;marginBottom=0;" vertex="1" parent="WIyWlLk6GJQsqaUBKTNV-1">
          <mxGeometry x="-120" y="664" width="170" height="112" as="geometry" />
        </mxCell>
        <mxCell id="2e2_yc0BawEwEj8Xe1i9-31" value="- profession: String" style="text;strokeColor=none;fillColor=none;align=left;verticalAlign=top;spacingLeft=4;spacingRight=4;overflow=hidden;rotatable=0;points=[[0,0.5],[1,0.5]];portConstraint=eastwest;" vertex="1" parent="2e2_yc0BawEwEj8Xe1i9-30">
          <mxGeometry y="26" width="170" height="26" as="geometry" />
        </mxCell>
        <mxCell id="2e2_yc0BawEwEj8Xe1i9-32" value="- superior: SecretAgent" style="text;strokeColor=none;fillColor=none;align=left;verticalAlign=top;spacingLeft=4;spacingRight=4;overflow=hidden;rotatable=0;points=[[0,0.5],[1,0.5]];portConstraint=eastwest;" vertex="1" parent="2e2_yc0BawEwEj8Xe1i9-30">
          <mxGeometry y="52" width="170" height="26" as="geometry" />
        </mxCell>
        <mxCell id="2e2_yc0BawEwEj8Xe1i9-33" value="" style="line;strokeWidth=1;fillColor=none;align=left;verticalAlign=middle;spacingTop=-1;spacingLeft=3;spacingRight=3;rotatable=0;labelPosition=right;points=[];portConstraint=eastwest;" vertex="1" parent="2e2_yc0BawEwEj8Xe1i9-30">
          <mxGeometry y="78" width="170" height="8" as="geometry" />
        </mxCell>
        <mxCell id="2e2_yc0BawEwEj8Xe1i9-34" value="+ reportToSupperior(): void" style="text;strokeColor=none;fillColor=none;align=left;verticalAlign=top;spacingLeft=4;spacingRight=4;overflow=hidden;rotatable=0;points=[[0,0.5],[1,0.5]];portConstraint=eastwest;" vertex="1" parent="2e2_yc0BawEwEj8Xe1i9-30">
          <mxGeometry y="86" width="170" height="26" as="geometry" />
        </mxCell>
        <mxCell id="2e2_yc0BawEwEj8Xe1i9-38" style="edgeStyle=orthogonalEdgeStyle;rounded=0;orthogonalLoop=1;jettySize=auto;html=1;strokeWidth=1;endSize=11;dashed=1;" edge="1" parent="WIyWlLk6GJQsqaUBKTNV-1" source="2e2_yc0BawEwEj8Xe1i9-35" target="2e2_yc0BawEwEj8Xe1i9-23">
          <mxGeometry relative="1" as="geometry" />
        </mxCell>
        <mxCell id="2e2_yc0BawEwEj8Xe1i9-40" style="edgeStyle=orthogonalEdgeStyle;rounded=0;orthogonalLoop=1;jettySize=auto;html=1;dashed=1;strokeWidth=1;endSize=11;" edge="1" parent="WIyWlLk6GJQsqaUBKTNV-1" source="2e2_yc0BawEwEj8Xe1i9-35" target="2e2_yc0BawEwEj8Xe1i9-25">
          <mxGeometry relative="1" as="geometry" />
        </mxCell>
        <mxCell id="2e2_yc0BawEwEj8Xe1i9-35" value="&lt;&lt; OfficerAgent &gt;&gt;" style="swimlane;fontStyle=1;childLayout=stackLayout;horizontal=1;startSize=26;horizontalStack=0;resizeParent=1;resizeParentMax=0;resizeLast=0;collapsible=1;marginBottom=0;" vertex="1" parent="WIyWlLk6GJQsqaUBKTNV-1">
          <mxGeometry x="-395" y="664" width="160" height="60" as="geometry" />
        </mxCell>
        <mxCell id="2e2_yc0BawEwEj8Xe1i9-36" value="" style="line;strokeWidth=1;fillColor=none;align=left;verticalAlign=middle;spacingTop=-1;spacingLeft=3;spacingRight=3;rotatable=0;labelPosition=right;points=[];portConstraint=eastwest;" vertex="1" parent="2e2_yc0BawEwEj8Xe1i9-35">
          <mxGeometry y="26" width="160" height="8" as="geometry" />
        </mxCell>
        <mxCell id="2e2_yc0BawEwEj8Xe1i9-37" value="+ sendMessage(): void" style="text;strokeColor=none;fillColor=none;align=left;verticalAlign=top;spacingLeft=4;spacingRight=4;overflow=hidden;rotatable=0;points=[[0,0.5],[1,0.5]];portConstraint=eastwest;" vertex="1" parent="2e2_yc0BawEwEj8Xe1i9-35">
          <mxGeometry y="34" width="160" height="26" as="geometry" />
        </mxCell>
        <mxCell id="2e2_yc0BawEwEj8Xe1i9-48" value="" style="endArrow=diamondThin;endFill=1;endSize=24;html=1;rounded=0;strokeWidth=1;" edge="1" parent="WIyWlLk6GJQsqaUBKTNV-1" source="2e2_yc0BawEwEj8Xe1i9-11" target="2e2_yc0BawEwEj8Xe1i9-0">
          <mxGeometry width="160" relative="1" as="geometry">
            <mxPoint x="-230" y="340" as="sourcePoint" />
            <mxPoint x="-70" y="340" as="targetPoint" />
          </mxGeometry>
        </mxCell>
        <mxCell id="2e2_yc0BawEwEj8Xe1i9-49" value="" style="endArrow=diamondThin;endFill=0;endSize=24;html=1;rounded=0;strokeWidth=1;" edge="1" parent="WIyWlLk6GJQsqaUBKTNV-1" source="2e2_yc0BawEwEj8Xe1i9-18" target="2e2_yc0BawEwEj8Xe1i9-0">
          <mxGeometry width="160" relative="1" as="geometry">
            <mxPoint x="-440" y="280" as="sourcePoint" />
            <mxPoint x="-280" y="280" as="targetPoint" />
          </mxGeometry>
        </mxCell>
      </root>
    </mxGraphModel>
  </diagram>
</mxfile>
